<svg xmlns="http://www.w3.org/2000/svg" width="129.009" height="56.08" viewBox="0 0 129.009 56.08"><defs><style>.a{fill:#fff;}.b{fill:#e1251b;}</style></defs><g transform="translate(-921.081 99.376)"><g transform="translate(925.411 -99.376)"><path class="a" d="M923.544-96.838l1.1-.1-.626,3.057,1.929-.151-.2.985-3.03.23Z" transform="translate(-922.72 103.386)"/><path class="a" d="M924.212-94.535l.465-2.277,1.123-.1-.462,2.259c-.119.586.114.843.558.808a1,1,0,0,0,.906-.9l.467-2.3,1.123-.1-.463,2.267a2.342,2.342,0,0,1-2.253,2.042C924.542-92.736,923.954-93.264,924.212-94.535Z" transform="translate(-920.368 103.064)"/><path class="a" d="M926.579-97.04l2.045-.174a1.122,1.122,0,0,1,1.012.277.736.736,0,0,1,.119.645l0,.013a1.365,1.365,0,0,1-.8.967.711.711,0,0,1,.584.943l0,.013a1.723,1.723,0,0,1-1.739,1.252l-2.052.159Zm1.437,1.487c.335-.029.547-.161.6-.4v-.013c.047-.222-.1-.338-.428-.309l-.716.058-.148.721Zm-.158,1.543c.335-.026.554-.177.6-.417l0-.013c.045-.222-.1-.357-.465-.325l-.843.066-.153.756Z" transform="translate(-917.758 102.909)"/><path class="a" d="M928.178-97.183l1.886-.161a1.312,1.312,0,0,1,1.2.341,1.057,1.057,0,0,1,.156.938l0,.013a1.881,1.881,0,0,1-1.078,1.342L931-93.334l-1.273.1-.547-1.194-.483.04-.254,1.252-1.1.085Zm1.429,1.833a.707.707,0,0,0,.692-.542l0-.011c.066-.325-.129-.473-.5-.441l-.721.058-.2.993Z" transform="translate(-915.143 102.692)"/><path class="a" d="M929.8-97.369l1.109-.1-.851,4.177-1.109.085Z" transform="translate(-912.5 102.514)"/><path class="a" d="M929.834-95.214l0-.013a3,3,0,0,1,2.544-2.354,1.386,1.386,0,0,1,1.514.732l-.97.75a.75.75,0,0,0-.771-.42,1.451,1.451,0,0,0-1.176,1.186l0,.013c-.127.629.164,1.088.721,1.044a1.5,1.5,0,0,0,1-.581l.7.56a2.735,2.735,0,0,1-1.957,1.086A1.506,1.506,0,0,1,929.834-95.214Z" transform="translate(-911.123 102.306)"/><path class="a" d="M933.749-97.629l1.065-.092.827,4.137-1.184.092-.135-.734-1.538.122-.439.777-1.16.09Zm.439,2.515-.2-1.17-.695,1.242Z" transform="translate(-908.821 102.092)"/><path class="a" d="M933.938-97.582l1.03-.087,1.181,2.121.457-2.264L937.7-97.9l-.869,4.288-.967.077-1.226-2.209-.476,2.341-1.091.085Z" transform="translate(-905.724 101.792)"/><path class="a" d="M936.176-96.795l-1.194.1.211-1.044,3.5-.3-.211,1.049-1.2.1-.663,3.265-1.1.087Z" transform="translate(-902.588 101.57)"/><path class="a" d="M937.167-97.888l3.207-.277-.209,1.028-2.111.18-.135.655,1.913-.158-.193.954-1.91.153-.14.689,2.137-.172-.206,1.028-3.231.251Z" transform="translate(-900.441 101.363)"/><path class="a" d="M939.315-98.017l1.168-.1.608,1.619,1.294-1.786,1.168-.1-.893,4.412-1.1.087.51-2.528-1.366,1.8-.024,0-.666-1.625-.507,2.507-1.081.085Z" transform="translate(-896.927 101.004)"/><path class="a" d="M940.524-95.727l.5-2.481,1.12-.1-.5,2.459c-.129.639.1.919.544.885s.793-.351.917-.972l.5-2.5,1.123-.1-.5,2.467a2.448,2.448,0,0,1-2.28,2.214C940.825-93.762,940.244-94.346,940.524-95.727Z" transform="translate(-893.603 100.759)"/><path class="a" d="M942.936-98.5l1.1-.1-.682,3.381,1.928-.156-.219,1.088-3.03.24Z" transform="translate(-891.004 100.657)"/><path class="a" d="M944.571-97.477l-1.194.1.219-1.088,3.495-.306-.219,1.1-1.2.1-.684,3.408-1.1.087Z" transform="translate(-888.806 100.372)"/><path class="a" d="M945.594-98.729l1.109-.1-.909,4.525-1.109.087Z" transform="translate(-886.658 100.276)"/><path class="a" d="M945.611-96.108l.513-2.544,1.12-.1-.507,2.523c-.132.655.1.943.539.909s.8-.359.922-1l.515-2.563,1.123-.1-.51,2.528a2.48,2.48,0,0,1-2.288,2.267C945.9-94.092,945.325-94.689,945.611-96.108Z" transform="translate(-885.256 100.03)"/><path class="a" d="M947.057-94.952l.782-.893a1.437,1.437,0,0,0,1.184.444c.293-.024.478-.156.515-.351l0-.013c.04-.19-.071-.285-.581-.386-.8-.151-1.4-.37-1.213-1.31v-.013a2.017,2.017,0,0,1,1.839-1.6,1.754,1.754,0,0,1,1.516.468l-.732.946a1.388,1.388,0,0,0-1.025-.357.46.46,0,0,0-.457.328l0,.013c-.042.209.077.291.6.388.869.151,1.369.444,1.2,1.305l0,.013a2.023,2.023,0,0,1-1.91,1.625A1.958,1.958,0,0,1,947.057-94.952Z" transform="translate(-882.764 99.852)"/><path class="a" d="M948.734-96.632l0-.013a3.222,3.222,0,0,1,2.631-2.584c1.228-.108,1.926.877,1.659,2.209l0,.013a3.2,3.2,0,0,1-2.631,2.584C949.165-94.326,948.467-95.311,948.734-96.632ZM951.9-96.9l0-.013c.135-.668-.164-1.213-.774-1.16a1.586,1.586,0,0,0-1.255,1.318l0,.013c-.132.666.167,1.21.769,1.162A1.586,1.586,0,0,0,951.9-96.9Z" transform="translate(-880.103 99.603)"/><path class="a" d="M950.346-95.179l.787-.906a1.416,1.416,0,0,0,1.178.452c.3-.026.478-.159.52-.357l0-.013c.037-.2-.072-.291-.584-.391-.8-.156-1.4-.38-1.207-1.334v-.013a2.028,2.028,0,0,1,1.841-1.622,1.738,1.738,0,0,1,1.516.476l-.734.959a1.379,1.379,0,0,0-1.025-.362.461.461,0,0,0-.457.333l0,.013c-.042.214.074.293.6.394.869.156,1.368.454,1.194,1.329l0,.013a2.034,2.034,0,0,1-1.913,1.648A1.936,1.936,0,0,1,950.346-95.179Z" transform="translate(-877.364 99.376)"/></g><g transform="translate(921.081 -92.906)"><path class="a" d="M1046.146-65.892a3.887,3.887,0,0,0-.61.061c.137-1.186.272-2.388.431-3.569a2.561,2.561,0,0,0-.513-2.021,2.52,2.52,0,0,0-1.831-.914l-.1-.008-.124-.008h-.016c-.233-1.038-.46-2.013-.692-2.956.1-.2.2-.4.3-.6.483-.972.983-1.976,1.392-3.054a1.485,1.485,0,0,1,.177-.354.6.6,0,0,1,.1-.019,2.775,2.775,0,0,0,2.523-2.621c.161-1.516.33-2.914.513-4.274a2.678,2.678,0,0,0-.5-2.1,2.476,2.476,0,0,0-1.759-.9,3.6,3.6,0,0,0-.581.008c-2.433.222-4.969.436-7.754.65a2.832,2.832,0,0,0-2.082,1.1l.042-.333.153-1.215c.156-1.213.314-2.467.478-3.7a2.545,2.545,0,0,0-.51-2.01,2.407,2.407,0,0,0-1.7-.882,2.876,2.876,0,0,0-.7.032c-.153.024-.351.037-.562.053-.124.008-.246.016-.37.026l-.074.008c-1.244.145-2.338.288-3.395.428-1.361.177-2.647.346-4.219.518a2.686,2.686,0,0,0-1.773.785,3.461,3.461,0,0,0-1.258-.343,3.27,3.27,0,0,0-.557,0L1005.3-92.815a2.051,2.051,0,0,0-.338.055,6.916,6.916,0,0,0-.692-1.242,6.874,6.874,0,0,0-5.207-2.9,8.037,8.037,0,0,0-1.041-.011,8.189,8.189,0,0,0-7.006,5.408,2.5,2.5,0,0,0-.275-.048,2.3,2.3,0,0,0-.357,0l-40,3.387A3.463,3.463,0,0,0,948-86.908a2.4,2.4,0,0,0-1.482-.642,3.475,3.475,0,0,0-.584.008c-1.844.161-3.685.314-5.529.47q-2.29.19-4.581.388l-.737.058a24.109,24.109,0,0,0-3.075.373,9.874,9.874,0,0,0-7.141,5.141,17.339,17.339,0,0,0-1.833,9.746,7.469,7.469,0,0,0,1.878,4.459,2.8,2.8,0,0,0-2.7,2.658c-.346,2.914-.716,5.854-1.1,8.736a2.623,2.623,0,0,0,.512,2.079,2.438,2.438,0,0,0,1.738.893,3.543,3.543,0,0,0,.618-.011c1.733-.156,3.5-.3,5.21-.444l1.767-.148.084-.008c.1-.011.323-.026.634-.053,1.49-.116,4.594-.359,6.414-.6a10.014,10.014,0,0,0,7.262-4.306,6.767,6.767,0,0,0,3.31,2.6,8.778,8.778,0,0,0,2.441.534l.14.011a13.362,13.362,0,0,0,1.453.008c-.008.058-.019.114-.026.172l-.005.058c-.177,1.477-.357,3-.573,4.483a2.55,2.55,0,0,0,.494,2.037,2.387,2.387,0,0,0,1.707.882,3.34,3.34,0,0,0,.576-.008c4.155-.357,7.524-.639,10.591-.885a2.6,2.6,0,0,0,2.417-1.979,3.434,3.434,0,0,0,1.8.671,3.637,3.637,0,0,0,.563,0l71.275-6.039a3.439,3.439,0,0,0,2.354-1.215,3.412,3.412,0,0,0,.7-1.564,3.915,3.915,0,0,0,1.582.335,3.942,3.942,0,0,0,3.944-3.942A3.942,3.942,0,0,0,1046.146-65.892Z" transform="translate(-921.081 96.927)"/><g transform="translate(2.2 2.202)"><g transform="translate(0 9.369)"><path class="b" d="M929.406-62.529c-2.33.2-4.66.383-6.99.594-.4.037-.552,0-.489-.476q.586-4.383,1.107-8.771c.058-.486.182-.692.721-.724,1.754-.1,3.506-.267,5.257-.431.341-.034.462.042.486.4.034.56.137,1.117.193,1.678.024.23.1.314.341.291,1.4-.132,2.808-.24,4.211-.383a1.3,1.3,0,0,0,1.178-.991,5.352,5.352,0,0,0,.233-1.815c-.029-.586-.293-.851-.882-.84-.711.016-1.421.079-2.132.137a16.736,16.736,0,0,1-4.015,0,5.206,5.206,0,0,1-4.761-4.887,15.16,15.16,0,0,1,1.588-8.528,7.738,7.738,0,0,1,5.635-4.008,30.881,30.881,0,0,1,3.556-.4c3.371-.288,6.742-.563,10.113-.856.362-.032.475,0,.417.423-.4,3.035-.779,6.073-1.149,9.114-.034.288-.14.391-.428.415-1.852.143-3.7.293-5.55.468-.354.034-.425-.108-.452-.4-.047-.544-.127-1.086-.172-1.633-.021-.262-.09-.378-.388-.349-1.007.106-2.016.164-3.022.28a1.432,1.432,0,0,0-1.442,1.326,6.007,6.007,0,0,0-.193,1.424c.024.613.259.88.872.925a7.339,7.339,0,0,0,.993-.024A24.754,24.754,0,0,1,939-80.747c2.29.3,4.105,1.273,4.924,3.588a7.289,7.289,0,0,1,.333,3.043,19.731,19.731,0,0,1-1.022,5.5,7.952,7.952,0,0,1-6.8,5.442C934.106-62.873,929.406-62.542,929.406-62.529Z" transform="translate(-921.914 92.546)"/></g><g transform="translate(96.918 1.305)"><path class="b" d="M964.118-65.422c-1.7.143-3.405.275-5.107.436-.367.034-.447-.053-.4-.415.2-1.527.375-3.057.552-4.586a.461.461,0,0,1,.412-.47,6.344,6.344,0,0,0,.621-.174c.964-.285.951-.288,1.073-1.26q.808-6.431,1.63-12.863c.172-1.347.343-2.695.528-4.039.037-.275-.04-.391-.314-.42-.4-.04-.787-.108-1.183-.159-.219-.029-.293-.116-.259-.359.217-1.577.4-2.837.581-4.417.042-.362.251-.365.507-.386,2.869-.317,4.861-.623,7.661-.954.362-.032.729-.042,1.088-.1.344-.053.436.05.391.391-.222,1.641-.425,3.284-.634,4.927-.409,3.2-.814,6.406-1.234,9.608-.042.328.034.407.354.365.539-.074,1.181.045,1.6-.211s.462-.948.66-1.453q1.205-3.051,2.38-6.11a.633.633,0,0,1,.629-.489q3.9-.3,7.786-.655c.457-.04.518.092.462.507q-.293,2.164-.521,4.34c-.042.383-.167.618-.57.66a2.4,2.4,0,0,0-2.1,1.783c-.486,1.281-1.139,2.5-1.738,3.735a1.367,1.367,0,0,0-.087,1q.527,2.12.985,4.259a.543.543,0,0,0,.592.5c.446.016.89.087,1.337.111.307.016.423.09.375.446-.209,1.543-.383,3.091-.558,4.636a.366.366,0,0,1-.4.386q-3.673.3-7.339.618c-.327.029-.42-.087-.486-.388-.5-2.264-1.038-4.52-1.535-6.787-.085-.38-.233-.473-.6-.423-.589.079-1.189.116-1.783.153-.238.013-.349.085-.372.343-.045.494-.122.985-.209,1.474-.039.238.042.343.267.367.032,0,.066.011.1.016,1.03.225,1.03.225.9,1.265-.156,1.281-.322,2.563-.462,3.846-.037.351-.143.5-.534.531C967.489-65.721,965.806-65.565,964.118-65.422Z" transform="translate(-958.6 95.599)"/></g><g transform="translate(23.143 14.181)"><path class="b" d="M949.232-69.464q1.3-10.37,2.61-20.746c.055-.423,0-.549-.455-.507-2.214.206-4.43.383-7.056.6-1.815.2-4.06.246-6.274.592a6.63,6.63,0,0,0-5.362,4.082,9.835,9.835,0,0,0-.616,1.833c-.446,2.026-.589,4.095-.851,6.147-.214,1.675-.5,3.344-.552,5.035A4.6,4.6,0,0,0,933.7-67.75a6.658,6.658,0,0,0,1.939.4,38.3,38.3,0,0,0,4.367-.24c.436-.021,1.017-.293,1.268.005.193.227-.074.811-.074,1.234a.815.815,0,0,1-.824.938,8.065,8.065,0,0,0-.858.246.469.469,0,0,0-.4.473c-.182,1.53-.365,3.059-.586,4.583-.056.4.061.431.4.4q5.3-.456,10.609-.885c.33-.029.446-.135.486-.46.177-1.477.362-2.956.576-4.43.061-.412,0-.613-.463-.613a7.845,7.845,0,0,1-.985-.122c-.232-.032-.325-.106-.283-.386C949.01-67.554,949.113-68.51,949.232-69.464Zm-5.941-13.618q-.531,4.212-1.044,8.427c-.032.259-.137.336-.372.349-.38.018-.761.058-1.141.09v-.016c-.415.037-.827.1-1.239.1-.645,0-.93-.267-.89-.917.047-.79.166-1.577.264-2.364.182-1.461.372-2.922.555-4.385a1.419,1.419,0,0,1,1.5-1.458c.676-.063,1.355-.106,2.032-.18C943.264-83.473,943.325-83.36,943.291-83.082Z" transform="translate(-930.674 90.725)"/></g><g transform="translate(44.852 12.074)"><path class="b" d="M952.125-68.514q-3.047.254-6.1.512a9.27,9.27,0,0,1-2.769-.135,4.648,4.648,0,0,1-3.865-4.985c.064-1.791.394-3.553.6-5.328.2-1.709.428-3.416.655-5.122.04-.288-.021-.433-.338-.452-.346-.021-.689-.106-1.035-.132-.312-.024-.42-.14-.378-.468q.3-2.239.547-4.486c.042-.372.159-.528.563-.56q4.291-.329,8.578-.716c.409-.037.555.018.5.481q-.891,6.9-1.746,13.8a3.059,3.059,0,0,0-.01.642.677.677,0,0,0,.708.687c.9.032,1.786-.124,2.679-.177.193-.013.225-.143.246-.306q.591-4.68,1.189-9.36c.032-.24-.058-.328-.283-.351-.4-.045-.787-.116-1.181-.156-.261-.026-.328-.145-.3-.394q.3-2.366.573-4.731c.029-.246.127-.336.373-.357q5.405-.444,10.807-.906c.264-.021.344.037.307.322-.2,1.577-.383,3.154-.566,4.734a.406.406,0,0,1-.354.407,1.738,1.738,0,0,1-.193.053c-1.213.087-1.543.8-1.654,1.939-.283,2.914-.711,5.817-1.1,8.721-.058.444.05.592.5.642,1.255.135,1.26.158,1.117,1.39-.148,1.25-.325,2.5-.452,3.746-.034.351-.172.433-.483.457C956.886-68.918,954.505-68.715,952.125-68.514Z" transform="translate(-938.892 91.522)"/></g><g transform="translate(79.324 9.454)"><path class="b" d="M957.643-69.107c-1.752.148-3.506.283-5.254.452-.4.037-.483-.074-.436-.449q.3-2.29.565-4.586a.433.433,0,0,1,.388-.428c.272-.069.541-.153.811-.232.787-.235.774-.238.877-1.049.4-3.136.782-6.277,1.218-9.407a8.968,8.968,0,0,1,1.651-4.163,6.609,6.609,0,0,1,4.536-2.6c2.018-.314,4.06-.383,6.092-.571,1.421-.132,2.845-.232,4.264-.37.346-.032.436.058.391.4q-.5,3.915-.97,7.838c-.039.335-.129.476-.5.5-1.622.114-3.241.254-4.861.407-.328.029-.439-.061-.449-.386-.01-.446-.074-.893-.1-1.339-.013-.206-.084-.3-.306-.272-.328.04-.663.045-.988.1a1.293,1.293,0,0,0-1.21,1.191c-.38,2.858-.734,5.717-1.109,8.573-.032.227.04.3.243.32.394.048.785.122,1.181.153.277.021.375.127.341.407-.2,1.577-.4,3.154-.576,4.734-.04.346-.264.322-.491.341Z" transform="translate(-951.94 92.514)"/></g><g transform="translate(66.742 11.168)"><path class="b" d="M952.906-69.171c-1.72.145-3.44.272-5.157.444-.46.045-.634.013-.552-.531.219-1.458.378-2.922.539-4.388.037-.33.153-.52.494-.555,1.144-.108,1.6-.674,1.712-1.886.27-2.983.732-5.947,1.123-8.919.04-.3-.008-.465-.357-.486s-.718-.1-1.08-.14c-.24-.026-.351-.1-.317-.375q.305-2.362.581-4.731c.032-.264.138-.357.4-.378q4.41-.357,8.824-.745c.431-.037.415.164.378.46q-.579,4.533-1.152,9.064c-.28,2.219-.558,4.436-.856,6.652-.045.338.076.436.38.462.362.029.721.1,1.083.132.254.024.33.114.3.383-.2,1.543-.394,3.088-.56,4.634-.039.362-.2.446-.528.47C956.409-69.475,954.657-69.319,952.906-69.171Z" transform="translate(-947.178 91.866)"/></g><g transform="translate(69.468)"><path class="b" d="M957.924-94.1a4.841,4.841,0,0,0-4.33-1.981,6.03,6.03,0,0,0-5.366,5.365,4.576,4.576,0,0,0,4.243,5.064l.055.005a5.857,5.857,0,0,0,5.786-3.691A4.853,4.853,0,0,0,957.924-94.1Z" transform="translate(-948.21 96.093)"/></g><g transform="translate(45.403 34.452)"><path class="b" d="M940.262-74.5A1.261,1.261,0,0,1,939.1-75.65a1.261,1.261,0,0,1,1.149-1.361l71.275-6.036a1.254,1.254,0,0,1,1.36,1.147,1.255,1.255,0,0,1-1.147,1.361L940.465-74.5A1.313,1.313,0,0,1,940.262-74.5Z" transform="translate(-939.1 83.052)"/></g><g transform="translate(26.131 5.368)"><path class="b" d="M932.959-90.674a1.261,1.261,0,0,0-1.149,1.363,1.258,1.258,0,0,0,1.155,1.147,1.341,1.341,0,0,0,.206,0l40.081-3.395a7,7,0,0,1-.293-2.5Z" transform="translate(-931.805 94.061)"/></g><path class="b" d="M969.815-93.877a1.259,1.259,0,0,0-1.36-1.149l-15.262,1.294a7.357,7.357,0,0,1-.264,2.549l15.737-1.334A1.26,1.26,0,0,0,969.815-93.877Z" transform="translate(-870.993 97.837)"/></g><g transform="translate(122.878 32.775)"><path class="b" d="M967.594-82.3v-.013a2.2,2.2,0,0,1,2.177-2.211,2.18,2.18,0,0,1,2.2,2.177v.013a2.2,2.2,0,0,1-2.177,2.214A2.185,2.185,0,0,1,967.594-82.3Zm4.126-.032v-.013a1.926,1.926,0,0,0-1.947-1.942,1.945,1.945,0,0,0-1.928,1.973v.013a1.925,1.925,0,0,0,1.947,1.939A1.943,1.943,0,0,0,971.72-82.327Zm-2.9-1.181,1.107-.008c.568,0,.972.235.975.777a.741.741,0,0,1-.475.732l.557.8-.756,0-.468-.69-.277,0,0,.692-.653,0Zm1.075,1.1c.227,0,.351-.116.351-.28s-.127-.275-.354-.275l-.415,0,0,.552Z" transform="translate(-967.594 84.52)"/></g></g></g></svg>